<?xml version="1.0" encoding="utf-8" standalone="yes"?>
<!DOCTYPE svg PUBLIC "-//W3C//DTD SVG 1.1//EN" "http://www.w3.org/Graphics/SVG/1.1/DTD/svg11.dtd">
<svg width="875" height="624" viewBox="0 0 875 624" style="fill:none;stroke:none;fill-rule:evenodd;clip-rule:evenodd;stroke-linecap:round;stroke-linejoin:round;stroke-miterlimit:1.5;" version="1.1" xmlns="http://www.w3.org/2000/svg" xmlns:xlink="http://www.w3.org/1999/xlink"><style class="text-font-style fontImports" data-font-family="Roboto">@import url('https://fonts.googleapis.com/css2?family=Roboto:wght@400;700&amp;display=block');</style><g id="items" style="isolation: isolate"><g id="blend" style="mix-blend-mode: normal"><g id="g-root-5.g-5_fr_18f2tk11cw07wp-fill" data-item-order="-496190" transform="translate(38, 129)"></g><g id="g-root-3.g-3_fr_18f2tk11cw07ws-fill" data-item-order="-496184" transform="translate(109, 200.27880859375)"></g><g id="g-root-4.g-4_fr_13z9bfl1cw08p3-fill" data-item-order="-496178" transform="translate(73, 164.27880859375)"></g><g id="g-root-2.g-2_fr_13z9bfl1cw08p6-fill" data-item-order="-496172" transform="translate(145, 173.739990234375)"></g><g id="g-root-1.g-1_fr_zk2ae91cw06bp-fill" data-item-order="-496166" transform="translate(181, 80.43994140625)"></g><g id="g-root-0.g-0_fr_zk2ae91cw06bs-fill" data-item-order="-496160" transform="translate(217, 134.949951171875)"></g><g id="g-root-babi_141raxt1cvxe6e-fill" data-item-order="0" transform="translate(430, 92)"></g><g id="g-root-tx_betterso_1uo1uld1cvxe6c-fill" data-item-order="0" transform="translate(517, 80)"><g id="tx_betterso_1uo1uld1cvxe6c-fill" stroke="none" fill="#e0cb15"><g><text style="font-style: normal; font-variant-caps: normal; font-weight: bold; font-stretch: normal; font-size: 20px; line-height: normal; font-family: Roboto, sans-serif; font-size-adjust: none; font-kerning: auto; font-variant-alternates: normal; font-variant-ligatures: normal; font-variant-numeric: normal; font-variant-east-asian: normal; font-variant-position: normal; font-variant-emoji: normal; font-feature-settings: normal; font-optical-sizing: auto; font-variation-settings: normal; white-space: pre;"><tspan x="12" y="34" dominant-baseline="ideographic">Better Society</tspan></text></g></g></g><g id="g-root-tx_theultim_1hclc811cvxfr9-fill" data-item-order="0" transform="translate(517, 116)"><g id="tx_theultim_1hclc811cvxfr9-fill" stroke="none" fill="#484848"><g><text style="font-style: normal; font-variant-caps: normal; font-weight: normal; font-stretch: normal; font-size: 15px; line-height: normal; font-family: Roboto, sans-serif; font-size-adjust: none; font-kerning: auto; font-variant-alternates: normal; font-variant-ligatures: normal; font-variant-numeric: normal; font-variant-east-asian: normal; font-variant-position: normal; font-variant-emoji: normal; font-feature-settings: normal; font-optical-sizing: auto; font-variation-settings: normal; white-space: pre;"><tspan x="12" y="28" dominant-baseline="ideographic">The ultimate goal of the </tspan><tspan x="12" y="46" dominant-baseline="ideographic">community</tspan></text></g></g></g><g id="g-root-grad_18egcgx1cwfp54-fill" data-item-order="0" transform="translate(493, 186)"></g><g id="g-root-tx_supporti_dl2xwh1cwe96u-fill" data-item-order="0" transform="translate(577, 174)"><g id="tx_supporti_dl2xwh1cwe96u-fill" stroke="none" fill="#4e88e7"><g><text style="font-style: normal; font-variant-caps: normal; font-weight: bold; font-stretch: normal; font-size: 20px; line-height: normal; font-family: Roboto, sans-serif; font-size-adjust: none; font-kerning: auto; font-variant-alternates: normal; font-variant-ligatures: normal; font-variant-numeric: normal; font-variant-east-asian: normal; font-variant-position: normal; font-variant-emoji: normal; font-feature-settings: normal; font-optical-sizing: auto; font-variation-settings: normal; white-space: pre;"><tspan x="12" y="34" dominant-baseline="ideographic">Supportive Students</tspan></text></g></g></g><g id="g-root-tx_benefici_9mfj51cwearr-fill" data-item-order="0" transform="translate(577, 210)"><g id="tx_benefici_9mfj51cwearr-fill" stroke="none" fill="#484848"><g><text style="font-style: normal; font-variant-caps: normal; font-weight: normal; font-stretch: normal; font-size: 15px; line-height: normal; font-family: Roboto, sans-serif; font-size-adjust: none; font-kerning: auto; font-variant-alternates: normal; font-variant-ligatures: normal; font-variant-numeric: normal; font-variant-east-asian: normal; font-variant-position: normal; font-variant-emoji: normal; font-feature-settings: normal; font-optical-sizing: auto; font-variation-settings: normal; white-space: pre;"><tspan x="12" y="28" dominant-baseline="ideographic">Beneficiaries of mentorship and </tspan><tspan x="12" y="46" dominant-baseline="ideographic">support</tspan></text></g></g></g><g id="g-root-grad_zk2ae91cwa1aj-fill" data-item-order="0" transform="translate(515, 297)"></g><g id="g-root-tx_engageda_vsbl1cwa0ox-fill" data-item-order="0" transform="translate(601, 285)"><g id="tx_engageda_vsbl1cwa0ox-fill" stroke="none" fill="#1eabda"><g><text style="font-style: normal; font-variant-caps: normal; font-weight: bold; font-stretch: normal; font-size: 20px; line-height: normal; font-family: Roboto, sans-serif; font-size-adjust: none; font-kerning: auto; font-variant-alternates: normal; font-variant-ligatures: normal; font-variant-numeric: normal; font-variant-east-asian: normal; font-variant-position: normal; font-variant-emoji: normal; font-feature-settings: normal; font-optical-sizing: auto; font-variation-settings: normal; white-space: pre;"><tspan x="12" y="34" dominant-baseline="ideographic">Engaged Alumni</tspan></text></g></g></g><g id="g-root-tx_activepa_1cuwboh1cwa2ve-fill" data-item-order="0" transform="translate(601, 321)"><g id="tx_activepa_1cuwboh1cwa2ve-fill" stroke="none" fill="#484848"><g><text style="font-style: normal; font-variant-caps: normal; font-weight: normal; font-stretch: normal; font-size: 15px; line-height: normal; font-family: Roboto, sans-serif; font-size-adjust: none; font-kerning: auto; font-variant-alternates: normal; font-variant-ligatures: normal; font-variant-numeric: normal; font-variant-east-asian: normal; font-variant-position: normal; font-variant-emoji: normal; font-feature-settings: normal; font-optical-sizing: auto; font-variation-settings: normal; white-space: pre;"><tspan x="12" y="28" dominant-baseline="ideographic">Active participants in </tspan><tspan x="12" y="46" dominant-baseline="ideographic">community events</tspan></text></g></g></g><g id="g-root-grad_dhc3dt1cw4gzk-fill" data-item-order="0" transform="translate(492, 407)"></g><g id="g-root-tx_dedicate_18jg55t1cw4g7a-fill" data-item-order="0" transform="translate(577, 395)"><g id="tx_dedicate_18jg55t1cw4g7a-fill" stroke="none" fill="#3cc583"><g><text style="font-style: normal; font-variant-caps: normal; font-weight: bold; font-stretch: normal; font-size: 20px; line-height: normal; font-family: Roboto, sans-serif; font-size-adjust: none; font-kerning: auto; font-variant-alternates: normal; font-variant-ligatures: normal; font-variant-numeric: normal; font-variant-east-asian: normal; font-variant-position: normal; font-variant-emoji: normal; font-feature-settings: normal; font-optical-sizing: auto; font-variation-settings: normal; white-space: pre;"><tspan x="12" y="34" dominant-baseline="ideographic">Dedicated Teachers</tspan></text></g></g></g><g id="g-root-tx_foundati_v8m3vl1cw4emf-fill" data-item-order="0" transform="translate(577, 431)"><g id="tx_foundati_v8m3vl1cw4emf-fill" stroke="none" fill="#484848"><g><text style="font-style: normal; font-variant-caps: normal; font-weight: normal; font-stretch: normal; font-size: 15px; line-height: normal; font-family: Roboto, sans-serif; font-size-adjust: none; font-kerning: auto; font-variant-alternates: normal; font-variant-ligatures: normal; font-variant-numeric: normal; font-variant-east-asian: normal; font-variant-position: normal; font-variant-emoji: normal; font-feature-settings: normal; font-optical-sizing: auto; font-variation-settings: normal; white-space: pre;"><tspan x="12" y="28" dominant-baseline="ideographic">Foundational educators of the </tspan><tspan x="12" y="46" dominant-baseline="ideographic">school</tspan></text></g></g></g><g id="g-root-peop_1hbyrz51cw09am-fill" data-item-order="0" transform="translate(430, 501)"></g><g id="g-root-tx_school_8xrqqp1cw06bw-fill" data-item-order="0" transform="translate(514, 489)"><g id="tx_school_8xrqqp1cw06bw-fill" stroke="none" fill="#969696"><g><text style="font-style: normal; font-variant-caps: normal; font-weight: bold; font-stretch: normal; font-size: 20px; line-height: normal; font-family: Roboto, sans-serif; font-size-adjust: none; font-kerning: auto; font-variant-alternates: normal; font-variant-ligatures: normal; font-variant-numeric: normal; font-variant-east-asian: normal; font-variant-position: normal; font-variant-emoji: normal; font-feature-settings: normal; font-optical-sizing: auto; font-variation-settings: normal; white-space: pre;"><tspan x="12" y="34" dominant-baseline="ideographic">School</tspan></text></g></g></g><g id="g-root-tx_coreinst_1unfach1cw07pp-fill" data-item-order="0" transform="translate(514, 525)"><g id="tx_coreinst_1unfach1cw07pp-fill" stroke="none" fill="#484848"><g><text style="font-style: normal; font-variant-caps: normal; font-weight: normal; font-stretch: normal; font-size: 15px; line-height: normal; font-family: Roboto, sans-serif; font-size-adjust: none; font-kerning: auto; font-variant-alternates: normal; font-variant-ligatures: normal; font-variant-numeric: normal; font-variant-east-asian: normal; font-variant-position: normal; font-variant-emoji: normal; font-feature-settings: normal; font-optical-sizing: auto; font-variation-settings: normal; white-space: pre;"><tspan x="12" y="28" dominant-baseline="ideographic">Core institution connecting all </tspan><tspan x="12" y="46" dominant-baseline="ideographic">members</tspan></text></g></g></g><g id="g-root-5.g-5_fr_18f2tk11cw07wp-stroke" data-item-order="-496190" transform="translate(38, 129)"><g id="5.g-5_fr_18f2tk11cw07wp-stroke" fill="none" stroke-linecap="round" stroke-linejoin="round" stroke-miterlimit="4" stroke="#969696" stroke-width="2"><g><path d="M 320.5266 52.0134C 287.8041 25.7277 246.2388 10 201 10C 95.5136 10 10 95.5136 10 201C 10 306.4864 95.5136 392 201 392C 306.4864 392 392 306.4864 392 201C 392 163.5478 381.2206 128.6134 362.595 99.1298L 339.7743 93.4918L 334.1248 98.5082C 355.9931 126.8705 369 162.4163 369 201C 369 293.7838 293.7838 369 201 369C 108.2162 369 33 293.7838 33 201C 33 108.2162 108.2162 33 201 33C 246.5647 33 287.8927 51.1394 318.1566 80.5908L 323.6459 75.7169L 320.5266 52.0134Z"></path></g></g><g id="5.g-5_fr_18f2tk11cw07wp-stroke" fill="none" stroke-linecap="round" stroke-linejoin="round" stroke-miterlimit="4" stroke="#969696" stroke-width="2"><g><path d="M 451.857028 431.44669C 437.645728 445.64779 414.610628 445.64779 400.399428 431.44669C 386.188228 417.23539 386.188228 394.19019 400.399428 379.97899C 413.327028 367.06159 433.552228 365.89919 447.793728 376.47169C 449.208828 377.52289 450.573328 378.69539 451.857028 379.97899C 452.049028 380.17109 452.230928 380.36309 452.412928 380.55519C 466.068228 394.79669 465.876128 417.42749 451.857028 431.44669Z"></path></g></g></g><g id="g-root-3.g-3_fr_18f2tk11cw07ws-stroke" data-item-order="-496184" transform="translate(109, 200.27880859375)"><g id="3.g-3_fr_18f2tk11cw07ws-stroke" fill="none" stroke-linecap="round" stroke-linejoin="round" stroke-miterlimit="4" stroke="#1eabda" stroke-width="2"><g><path d="M 226.99 59.34L 208.99 75.44C 219.72 90.93 226 109.73 226 130C 226 183.02 183.02 226 130 226C 76.98 226 34 183.02 34 130C 34 76.98 76.98 34 130 34C 154.11 34 176.14 42.88 192.99 57.56L 210.99 41.46C 189.65 21.92 161.22 10 130 10C 63.73 10 10 63.73 10 130C 10 196.27 63.73 250 130 250C 196.27 250 250 196.27 250 130C 250 103.58 241.46 79.16 226.99 59.34Z"></path></g></g><g id="3.g-3_fr_18f2tk11cw07ws-stroke" fill="none" stroke-linecap="round" stroke-linejoin="round" stroke-miterlimit="4" stroke="#1eabda" stroke-width="2"><g><path d="M 475.989274 130.493157C 475.989274 150.324157 460.120374 166.455757 440.390474 166.870157C 440.127674 166.880257 439.864874 166.880357 439.602074 166.880357C 437.792774 166.880357 436.003774 166.748957 434.265274 166.496257C 416.698374 163.908657 403.214874 148.777657 403.214874 130.493157C 403.214874 112.208557 416.738774 97.037157 434.346074 94.479957C 436.064374 94.237357 437.812974 94.105957 439.602074 94.105957C 439.874974 94.105957 440.137774 94.105957 440.410674 94.116057C 460.130474 94.540557 475.989274 110.672257 475.989274 130.493157Z"></path></g></g></g><g id="g-root-4.g-4_fr_13z9bfl1cw08p3-stroke" data-item-order="-496178" transform="translate(73, 164.27880859375)"><g id="4.g-4_fr_13z9bfl1cw08p3-stroke" fill="none" stroke-linecap="round" stroke-linejoin="round" stroke-miterlimit="4" stroke="#3cc583" stroke-width="2"><g><path d="M 289.93 71.24L 271.98 87.3C 288.32 109.28 298 136.51 298 166C 298 238.9 238.9 298 166 298C 93.1 298 34 238.89 34 166C 34 93.11 93.1 34 166 34C 200.77 34 232.4 47.45 255.98 69.42L 273.93 53.36C 245.91 26.5 207.88 10 166 10C 79.84 10 10 79.83 10 166C 10 252.17 79.84 322 166 322C 252.16 322 322 252.16 322 166C 322 130.36 310.05 97.51 289.93 71.24Z"></path></g></g><g id="4.g-4_fr_13z9bfl1cw08p3-stroke" fill="none" stroke-linecap="round" stroke-linejoin="round" stroke-miterlimit="4" stroke="#3cc583" stroke-width="2"><g><path d="M 487.175228 290.846243C 479.594528 309.140843 458.813428 317.974843 440.437928 310.859143C 440.165028 310.758043 439.902228 310.646843 439.629328 310.535643C 437.951428 309.838243 436.354428 309.039843 434.848428 308.130143C 419.606228 299.023243 412.945328 279.879543 419.939728 262.989843C 426.944328 246.100043 445.198528 237.266043 462.431928 241.622443C 464.130028 242.057043 465.817928 242.612943 467.475628 243.300243C 467.758628 243.421543 468.041628 243.532743 468.314528 243.664143C 486.305928 251.639043 494.745728 272.561643 487.175228 290.846243Z"></path></g></g></g><g id="g-root-2.g-2_fr_13z9bfl1cw08p6-stroke" data-item-order="-496172" transform="translate(145, 173.739990234375)"><g id="2.g-2_fr_13z9bfl1cw08p6-stroke" fill="none" stroke-linecap="round" stroke-linejoin="round" stroke-miterlimit="4" stroke="#4e88e7" stroke-width="2"><g><path d="M 163.97 110.049062L 145.82 126.279063C 151.02 135.159063 154 145.499062 154 156.539063C 154 189.679063 127.14 216.539063 94 216.539063C 60.86 216.539063 34 189.679063 34 156.539063C 34 123.399063 60.86 96.539063 94 96.539063C 107.43 96.539063 119.82 100.949063 129.82 108.399063L 147.97 92.169063C 133.37 79.909063 114.55 72.539063 94 72.539063C 47.61 72.539063 10 110.149063 10 156.539063C 10 202.929063 47.61 240.539063 94 240.539063C 140.39 240.539063 178 202.929063 178 156.539063C 178 139.349063 172.84 123.359063 163.97 110.049062Z"></path></g></g><g id="2.g-2_fr_13z9bfl1cw08p6-stroke" fill="none" stroke-linecap="round" stroke-linejoin="round" stroke-miterlimit="4" stroke="#4e88e7" stroke-width="2"><g><path d="M 396.36511 79.7496C 396.16291 79.8406 395.97091 79.9316 395.76871 80.0124C 394.07061 80.7199 392.34221 81.286 390.60371 81.7105C 373.41081 86.0062 355.20711 77.1924 348.22281 60.3229C 341.25871 43.4938 347.84881 24.4209 362.97981 15.2736C 364.53641 14.3336 366.18391 13.4946 367.92241 12.777C 368.09421 12.7063 368.25591 12.6355 368.42781 12.5749C 386.87411 5.2469 407.83711 14.0809 415.45821 32.4665C 423.06921 50.8319 414.52831 71.8657 396.36511 79.7496Z"></path></g></g></g><g id="g-root-1.g-1_fr_zk2ae91cw06bp-stroke" data-item-order="-496166" transform="translate(181, 80.43994140625)"><g id="1.g-1_fr_zk2ae91cw06bp-stroke" fill="none" stroke-linecap="round" stroke-linejoin="round" stroke-miterlimit="4" stroke="#e0cb15" stroke-width="2"><g><path d="M 106 249.839355C 106 276.349355 84.51 297.839355 58 297.839355C 31.49 297.839355 10 276.349355 10 249.839355C 10 223.329355 31.49 201.839355 58 201.839355C 67.86 201.839355 77.03 204.809355 84.65 209.909355L 65.49 227.039355C 63.13 226.259355 60.62 225.839355 58 225.839355C 44.75 225.839355 34 236.589355 34 249.839355C 34 263.089355 44.75 273.839355 58 273.839355C 71.25 273.839355 82 263.089355 82 249.839355C 82 248.159355 81.83 246.509355 81.49 244.929355L 100.65 227.789355C 104.07 234.389355 106 241.889355 106 249.839355Z"></path></g></g><g id="1.g-1_fr_zk2ae91cw06bp-stroke" fill="none" stroke-linecap="round" stroke-linejoin="round" stroke-miterlimit="4" stroke="#e0cb15" stroke-width="2"><g><path d="M 316.154628 61.6748C 316.114228 61.7658 316.073828 61.8568 316.033328 61.9376C 314.345428 65.354 312.081328 68.5581 309.261328 71.4084L 309.129928 71.5398C 307.714828 72.9549 306.208828 74.2284 304.642128 75.3504C 290.430928 85.6095 270.468528 84.336 257.672328 71.5398C 246.574328 60.4417 244.148428 43.9765 250.374728 30.5234C 250.415128 30.4324 250.455528 30.3515 250.496028 30.2606C 252.214328 26.7937 254.508728 23.5492 257.399428 20.6584C 271.610728 6.4472 294.645828 6.4472 308.857028 20.6584C 319.955128 31.7565 322.380928 48.2217 316.154628 61.6748Z"></path></g></g></g><g id="g-root-0.g-0_fr_zk2ae91cw06bs-stroke" data-item-order="-496160" transform="translate(217, 134.949951171875)"><g id="0.g-0_fr_zk2ae91cw06bs-stroke" fill="none" stroke-linecap="round" stroke-linejoin="round" stroke-miterlimit="4" stroke="#808080" stroke-width="2"><g><path d="M 224.9 49.32L 207.01 65.32L 183.21 59.44L 177.03 64.96L 200.83 70.84L 182.95 86.84L 159.15 80.96L 33.7947 192.8277C 33.9295 193.5478 34 194.2906 34 195.0498C 34 201.6772 28.6274 207.0498 22 207.0498C 15.3726 207.0498 10 201.6772 10 195.0498C 10 188.4224 15.3726 183.0498 22 183.0498C 23.3911 183.0498 24.7269 183.2865 25.9693 183.7218L 151.01 72.14L 147.77 47.52L 165.66 31.52L 168.9 56.14L 175.08 50.61L 171.83 26L 189.72 10L 193.89 41.66L 224.9 49.32Z"></path></g></g><g id="0.g-0_fr_zk2ae91cw06bs-stroke" fill="none" stroke-linecap="round" stroke-linejoin="round" stroke-miterlimit="4" stroke="#808080" stroke-width="2"><g><path d="M 296.42772 51.366226C 296.25592 51.426826 296.09412 51.497626 295.92232 51.568326C 294.18382 52.286026 292.53632 53.124926 290.97972 54.064926C 284.41992 42.673726 277.03132 31.656526 268.83412 21.084026C 270.23902 20.042926 271.58342 18.880526 272.85692 17.607026C 273.03882 17.425026 273.21072 17.243126 273.38252 17.061226C 273.45322 17.142026 273.52402 17.233026 273.58472 17.313926C 282.05482 28.219926 289.67582 39.590926 296.42772 51.366226ZM 268.79372 21.032926C 268.74322 20.972226 268.69262 20.901526 268.64212 20.840826C 270.20882 19.718926 271.71482 18.445426 273.12992 17.030326L 273.26132 16.898926C 273.30172 16.949426 273.34212 17.010626 273.38252 17.061226C 273.21072 17.243126 273.03882 17.425026 272.85692 17.607026C 271.58342 18.880526 270.23902 20.042926 268.83412 21.084026C 268.82402 21.063826 268.80382 21.053126 268.79372 21.032926ZM 332.41062 159.445726C 332.13772 159.435626 331.87492 159.435626 331.60202 159.435626C 329.81302 159.435626 328.06442 159.567026 326.34612 159.809626C 324.68852 146.467626 322.10092 133.348026 318.60372 120.501326C 320.34222 120.076826 322.07062 119.510826 323.76872 118.803326C 323.97082 118.722426 324.16292 118.631426 324.36502 118.540526C 328.01392 131.902726 330.70252 145.558026 332.41062 159.445726ZM 332.39042 232.199926C 330.69242 246.016926 327.99362 259.631826 324.31452 272.994026C 324.04162 272.862626 323.75862 272.751426 323.47562 272.630126C 321.81792 271.942826 320.13002 271.386826 318.43192 270.952226C 321.94932 258.145926 324.56722 245.066826 326.26522 231.825926C 328.00372 232.078626 329.79282 232.210026 331.60202 232.210026C 331.86482 232.210026 332.12762 232.210026 332.39042 232.199926ZM 296.43792 340.188826C 289.59512 352.216726 281.90322 363.698926 273.41292 374.605026C 273.23102 374.412926 273.04902 374.220926 272.85702 374.028826C 271.57332 372.745226 270.20882 371.572726 268.79372 370.521526C 276.93032 360.009726 284.29872 348.952026 290.84842 337.459726C 292.35442 338.369426 293.95142 339.167926 295.62932 339.865326C 295.90222 339.976526 296.16502 340.087726 296.43792 340.188826Z"></path></g></g></g><g id="g-root-babi_141raxt1cvxe6e-stroke" data-item-order="0" transform="translate(430, 92)"><g id="babi_141raxt1cvxe6e-stroke" fill="none" stroke-linecap="round" stroke-linejoin="round" stroke-miterlimit="4" stroke="#e0cb15" stroke-width="2"><g><path d="M 10 10M 40.200001 56.5L 51.599998 45.099998C 52.799999 43.900002 52.799999 42.099998 51.599998 40.900002C 50.400002 39.700001 48.599998 39.700001 47.400002 40.900002L 40 48.299999C 39.400002 48.900002 38.599998 49.099998 37.799999 49.099998L 30.200001 49.099998C 29.399981 49.099998 28.599979 48.700001 27.999981 48.299999L 20.599979 40.900002C 19.399979 39.700001 17.6 39.700001 16.4 40.900002C 15.2 42.099998 15.2 43.900002 16.4 45.099998L 27.799999 56.5M 34 44.299999C 37.313801 44.299999 40 41.613602 40 38.299999C 40 34.986198 37.313801 32.299999 34 32.299999C 30.686199 32.299999 28 34.986198 28 38.299999C 28 41.613602 30.686199 44.299999 34 44.299999ZM 34 19.5C 36.209198 19.5 38 17.709141 38 15.5C 38 13.29086 36.209198 11.5 34 11.5C 31.7908 11.5 30 13.29086 30 15.5C 30 17.709141 31.7908 19.5 34 19.5ZM 10 10M 42 28.5L 46.200001 24.100021C 47.400002 22.900021 47.400002 21.1 46.200001 19.9C 45 18.700001 43.200001 18.700001 42 19.9L 37.400002 24.69998C 36.599998 25.69998 35.200001 26.100019 34 26.100019C 32.799999 26.100019 31.4 25.499981 30.6 24.69998L 26 19.9C 24.799999 18.700001 22.999981 18.700001 21.79998 19.9C 20.599979 21.1 20.599979 22.900021 21.79998 24.100021L 26 28.5"></path></g></g></g><g id="g-root-tx_betterso_1uo1uld1cvxe6c-stroke" data-item-order="0" transform="translate(517, 80)"></g><g id="g-root-tx_theultim_1hclc811cvxfr9-stroke" data-item-order="0" transform="translate(517, 116)"></g><g id="g-root-grad_18egcgx1cwfp54-stroke" data-item-order="0" transform="translate(493, 186)"><g id="grad_18egcgx1cwfp54-stroke" fill="none" stroke-linecap="round" stroke-linejoin="round" stroke-miterlimit="4" stroke="#4e88e7" stroke-width="2"><g><path d="M 53.330002 47.666L 53.330002 52.638C 53.329494 53.459591 52.826588 54.197296 52.062 54.498001L 46.032001 56.872002C 45.580574 57.040668 45.083427 57.040668 44.632 56.872002L 38.599998 54.498001C 37.836201 54.196659 37.334183 53.459095 37.334 52.638L 37.334 47.666M 44.944 41.16L 33.330002 46L 44.944 50.84C 45.190376 50.94278 45.467621 50.94278 45.714001 50.84L 56.222 46.462002C 56.408913 46.384647 56.530804 46.20229 56.530804 46C 56.530804 45.79771 56.408913 45.615353 56.222 45.537998L 45.714001 41.16C 45.467621 41.05722 45.190376 41.05722 44.944 41.16ZM 10 10M 33.330002 46L 33.330002 53M 11.33 41C 11.33 34.372581 16.702583 29 23.33 29C 29.957417 29 35.330002 34.372581 35.330002 41ZM 15.83 18.5C 15.830001 22.642136 19.187866 26 23.330002 26C 27.472136 26 30.83 22.642136 30.83 18.5C 30.83 14.357864 27.472136 11 23.330002 11C 19.187866 11 15.830001 14.357864 15.830001 18.5ZM 34.830002 18.5C 34.830002 22.642136 38.187866 26 42.330002 26C 46.472137 26 49.830002 22.642136 49.830002 18.5C 49.830002 14.357864 46.472137 11 42.330002 11C 38.187866 11 34.830002 14.357864 34.830002 18.5ZM 36.360001 30.587999C 39.771221 28.631594 43.924538 28.470686 47.476898 30.157309C 51.029259 31.843931 53.529827 35.164036 54.170002 39.043999"></path></g></g></g><g id="g-root-tx_supporti_dl2xwh1cwe96u-stroke" data-item-order="0" transform="translate(577, 174)"></g><g id="g-root-tx_benefici_9mfj51cwearr-stroke" data-item-order="0" transform="translate(577, 210)"></g><g id="g-root-grad_zk2ae91cwa1aj-stroke" data-item-order="0" transform="translate(515, 297)"><g id="grad_zk2ae91cwa1aj-stroke" fill="none" stroke-linecap="round" stroke-linejoin="round" stroke-miterlimit="4" stroke="#1eabda" stroke-width="2"><g><path d="M 42.762001 39.400002L 29.5 44.674L 42.834 49.380001C 43.264957 49.532196 43.735043 49.532196 44.166 49.380001L 56.242001 45.118C 56.438416 45.048523 56.571163 44.864536 56.575169 44.656235C 56.579178 44.447933 56.453598 44.258976 56.259998 44.181999L 44.237999 39.400002C 43.763996 39.211811 43.236004 39.211811 42.762001 39.400002ZM 10 10M 29.5 44.674L 29.5 52M 35.5 46.799999L 35.5 53.099998C 35.496864 53.715786 35.870399 54.270935 36.442001 54.5L 42.942001 56.900002C 43.300076 57.043953 43.699928 57.043953 44.058002 56.900002L 50.557999 54.5C 51.129604 54.270935 51.503139 53.715786 51.5 53.100002L 51.5 46.799999M 25.5 43L 11.5 43C 12.346 38.428001 12.206 35.84 14.718 34.764L 23.5 31L 23.5 27C 23.5 27 21.610001 26.299999 21.610001 22C 19.647999 22 19.647999 18 21.610001 18C 21.610001 17.424 18.321999 13.14 22.454 14C 23.436001 10 33.115997 10 34.098 14C 34.357128 15.397466 34.0397 16.840317 33.218002 18C 35.120003 18 34.599998 22 33.232002 22C 33.232002 26.299999 31.5 27 31.5 27L 31.5 31L 40.281998 34.764C 40.457458 34.838139 40.627247 34.925037 40.790001 35.024002"></path></g></g></g><g id="g-root-tx_engageda_vsbl1cwa0ox-stroke" data-item-order="0" transform="translate(601, 285)"></g><g id="g-root-tx_activepa_1cuwboh1cwa2ve-stroke" data-item-order="0" transform="translate(601, 321)"></g><g id="g-root-grad_dhc3dt1cw4gzk-stroke" data-item-order="0" transform="translate(492, 407)"><g id="grad_dhc3dt1cw4gzk-stroke" fill="none" stroke-linecap="round" stroke-linejoin="round" stroke-miterlimit="4" stroke="#3cc583" stroke-width="2"><g><path d="M 10 10M 42.700001 39.400002L 29.438 44.674L 42.771999 49.380001C 43.202957 49.532196 43.673042 49.532196 44.104 49.380001L 56.18 45.118C 56.376415 45.048523 56.509163 44.864536 56.513172 44.656235C 56.517178 44.447933 56.391598 44.258976 56.198002 44.181999L 44.175999 39.400002C 43.701996 39.211811 43.174004 39.211811 42.700001 39.400002ZM 10 10M 29.438 44.674L 29.438 52M 35.438 46.799999L 35.438 53.099998C 35.433739 53.716129 35.807663 54.271847 36.380001 54.500004L 42.880001 56.900002C 43.23737 57.044037 43.636635 57.044037 43.994003 56.900002L 50.493999 54.5C 51.066757 54.27203 51.441376 53.716454 51.438004 53.100002L 51.438 46.799999M 31.799999 29.384001C 34.172424 29.648584 36.566254 29.129499 38.615997 27.906C 38.85701 27.761675 39.023613 27.519953 39.072716 27.243357C 39.121822 26.966763 39.048603 26.682465 38.872002 26.463999C 38.054001 25.501999 37.487999 24.226 37.237999 20.529999C 36.762001 13.48 32 11 27.922001 11C 23.844 11 19.082001 13.48 18.6 20.529999C 18.35 24.223999 17.784 25.501999 16.968 26.464001C 16.79122 26.682203 16.717684 26.966311 16.766399 27.24288C 16.815117 27.519449 16.981302 27.761332 17.222 27.906C 19.272583 29.129238 21.666954 29.648287 24.040001 29.384001M 40.444 35.218002C 37.947834 33.989235 35.372837 32.927567 32.736 32.040001C 32.17857 31.832647 31.806988 31.302727 31.802 30.708L 31.802 28.09C 31.799669 27.71048 31.957199 27.347509 32.236 27.09C 33.277637 26.242424 33.839241 24.939232 33.739998 23.599998L 33.739998 19.728001C 31.460367 19.335726 29.396503 18.140259 27.922001 16.358C 26.447845 18.140671 24.383816 19.336233 22.104 19.728001L 22.104 23.6C 22.003532 24.937714 22.561905 26.240335 23.6 27.09C 23.879333 27.347301 24.037567 27.710224 24.035999 28.09L 24.035999 30.708C 24.031271 31.303417 23.658585 31.833778 23.1 32.040001C 17.782 34.010002 13.874001 35.412003 12.862 37.440002C 12.002916 39.17305 11.517758 41.067348 11.438 43L 25.438 43"></path></g></g></g><g id="g-root-tx_dedicate_18jg55t1cw4g7a-stroke" data-item-order="0" transform="translate(577, 395)"></g><g id="g-root-tx_foundati_v8m3vl1cw4emf-stroke" data-item-order="0" transform="translate(577, 431)"></g><g id="g-root-peop_1hbyrz51cw09am-stroke" data-item-order="0" transform="translate(430, 501)"><g id="peop_1hbyrz51cw09am-stroke" fill="none" stroke-linecap="round" stroke-linejoin="round" stroke-miterlimit="4" stroke="#969696" stroke-width="2"><g><path d="M 21 20C 21 22.761425 23.238577 25 26 25C 28.761423 25 31 22.761425 31 20C 31 17.238577 28.761423 15 26 15C 23.238577 15 21 17.238577 21 20ZM 22 35L 22 33C 22 30.790861 23.790861 29 26 29C 28.209139 29 30 30.790861 30 33L 30 35M 37 20C 37 22.761425 39.238579 25 42 25C 44.761425 25 47 22.761425 47 20C 47 17.238577 44.761425 15 42 15C 39.238579 15 37 17.238577 37 20ZM 38 35L 38 33C 38 30.790861 39.790863 29 42 29C 44.209141 29 46 30.790861 46 33L 46 35M 57 39L 18 39C 14.134007 39 11 42.134007 11 46C 11 49.865993 14.134007 53 18 53L 57 53"></path></g></g></g><g id="g-root-tx_school_8xrqqp1cw06bw-stroke" data-item-order="0" transform="translate(514, 489)"></g><g id="g-root-tx_coreinst_1unfach1cw07pp-stroke" data-item-order="0" transform="translate(514, 525)"></g></g></g></svg>